<svg id="Layer_1" data-name="Layer 1" xmlns="http://www.w3.org/2000/svg" viewBox="0 0 88.94 100"><defs><style>.cls-1{fill:#212531;}</style></defs><title>k_logo</title><path class="cls-1" d="M21,83.17C18.31,67.75,13.45,53,8.44,38.12c-1-2.91-1.93-10.74-5.66-10.87-1,0-2.15-.13-2.61-1s0.1-1.85.65-2.62A68.78,68.78,0,0,1,27.31,1.7,16.49,16.49,0,0,1,32.6,0a7,7,0,0,1,5.22,1.45A7.21,7.21,0,0,1,40,6.85c0.11,7-3,14.85-4.38,21.69q-2.37,11.72-4.23,23.53-1.59,10.08-2.8,20.22c-0.73,6.09-.83,12.43-2.63,18.32a1.11,1.11,0,0,1-.31.57,1,1,0,0,1-1.13-.09,5.42,5.42,0,0,1-1.64-1.4A9.92,9.92,0,0,1,21.27,85Q21.12,84.11,21,83.17Zm2.53-12.83c1.6-1.06,2.22-6,2.64-8,1.33-6.16,2-12.59,3-18.82q2.56-16,4.73-32c0.31-2.25.26-5.15-1.83-6-2.77-1.18-6.1,2-8.14,3.45l-9.14,6.32c-4.62,3.19-5.61,6.42-4,11.82,2.11,7.25,4.14,14.53,6.22,21.79q1.56,5.45,3.18,10.88C21.13,63.15,21.84,67.2,23.49,70.33Z"/><path class="cls-1" d="M28.68,96.27a19.54,19.54,0,0,1,.24-3.93c0.69-5.06,1.48-10.11,2.27-15.16l6.95-44.26c0.27-1.7.37-5.91,1.86-7s4.66,0.21,6.23.45a75.05,75.05,0,0,0,13.57.81c3.54-.11,15.66-1,16.1,4.78,0.15,2-3.27,4.63-4.52,5.9C57.63,51.7,49.42,68.35,40.88,85.64c-2,4.07-3.63,8.51-6.68,12-1.5,1.7-2.6,3.39-4.36,1.73A4.56,4.56,0,0,1,28.68,96.27Zm6.55-13.45a1.21,1.21,0,0,0,.32.24c0.81,0.43,9-16.28,9.69-17.73C51,54,59.11,44.85,67.73,35.69c1.35-1.44,1.95-3.26-.25-4.3-2.53-1.19-5.82-1.1-8.55-.84-3.23.3-6.44,1-9.68,0.91-4.81-.08-6.18.91-7.1,5.48q-1.48,7.42-2.76,14.88Q36.81,66.74,35,81.77A1.27,1.27,0,0,0,35.23,82.82Z"/><path class="cls-1" d="M85.58,93.13c-3.17.29-5.84,0-10-.25q-7-.36-14-0.78c-5-.3-10.31-1.17-15.3-0.14-1.22.25-2.7,0.23-3.47-.76a2.86,2.86,0,0,1-.51-1.87,10.19,10.19,0,0,1,1.65-4.49l5.73-10.21c1.36-2.42,3.13-7.88,5.8-9s6.79,2.43,8.87,3.73A106.78,106.78,0,0,1,88.7,90.71C89.51,91.67,88.2,92.9,85.58,93.13Zm-6.22-5.45a1,1,0,0,0,.35-0.76,1.72,1.72,0,0,0-.74-1.1L66.23,74.9c-1.78-1.53-3.83-3.15-6.17-3a6.16,6.16,0,0,0-4.22,2.43c-0.72.89-5.2,10.53-5.14,10.54a106.17,106.17,0,0,0,14,1.92c2.45,0.21,4.9.38,7.36,0.58,2,0.16,4.62.92,6.54,0.65A1.39,1.39,0,0,0,79.36,87.69Z"/></svg>